<svg data-v-423bf9ae="" xmlns="http://www.w3.org/2000/svg" viewBox="0 0 267.63815969100193 60" class="font"><!----><!----><!----><g data-v-423bf9ae="" id="83118060-3321-4c45-a948-aefafec27340" fill="white" transform="matrix(6.232839880626635,0,0,6.232839880626635,-2.8671087806421554,-2.7335361033995724)"><path d="M0.46 5.56C0.46 8.61 2.14 10.05 4.52 10.05C5.63 10.05 6.58 9.72 6.99 9.42C7.41 9.14 7.38 7.78 6.87 8.08C6.45 8.32 5.54 8.61 4.73 8.61C3.36 8.61 2.18 7.70 2.18 5.56C2.18 3.39 3.36 2.48 4.73 2.48C5.54 2.48 6.45 2.77 6.87 3.02C7.38 3.32 7.41 1.97 6.99 1.68C6.58 1.37 5.63 1.04 4.52 1.04C2.14 1.04 0.46 2.48 0.46 5.56ZM14.84 8.48C14.73 8.53 14.63 8.54 14.53 8.54C14.27 8.54 14.13 8.33 14.13 7.76L14.13 6.03C14.13 4.05 13.03 3.37 11.33 3.37C9.91 3.37 9.09 3.65 8.50 4.14C8.04 4.51 8.13 5.56 8.61 5.26C9.18 4.93 9.95 4.69 10.82 4.69C12.00 4.69 12.49 5.08 12.49 6.24L12.49 6.31C12.05 6.09 11.41 5.95 10.51 5.95C9.02 5.95 8.05 6.76 8.05 8.01C8.05 9.25 8.96 10.05 10.36 10.05C11.44 10.05 12.19 9.66 12.66 9.24C12.88 9.81 13.30 10.02 13.79 10.02C14.13 10.02 14.49 9.93 14.84 9.79C15.44 9.53 15.44 8.26 14.84 8.48ZM10.81 8.75C10.00 8.75 9.70 8.37 9.70 7.97C9.70 7.55 10.02 7.15 10.89 7.15C11.70 7.15 12.24 7.29 12.49 7.48L12.49 8.04C12.24 8.34 11.68 8.75 10.81 8.75ZM19.18 8.48C18.91 8.57 18.69 8.62 18.52 8.62C18.14 8.62 17.99 8.36 17.99 7.76L17.99 0.71C17.99 0.04 16.35 0.74 16.35 1.41L16.35 8.15C16.35 9.56 17.04 10.05 17.91 10.05C18.31 10.05 18.75 9.94 19.18 9.79C19.78 9.52 19.77 8.26 19.18 8.48ZM23.70 10.05C25.79 10.05 27.01 8.82 27.01 6.72C27.01 4.61 25.79 3.36 23.70 3.36C21.62 3.36 20.40 4.61 20.40 6.72C20.40 8.82 21.62 10.05 23.70 10.05ZM23.70 8.82C22.65 8.82 22.04 8.06 22.04 6.72C22.04 5.35 22.65 4.59 23.70 4.59C24.75 4.59 25.37 5.35 25.37 6.72C25.37 8.06 24.75 8.82 23.70 8.82ZM32.12 3.43C31.02 3.46 30.21 3.88 29.68 4.54L29.47 3.68C29.37 3.29 28.04 3.28 28.04 3.81L28.04 9.63C28.04 10.19 29.69 10.19 29.69 9.63L29.69 5.94C30.34 5.25 31.00 5.04 31.81 5.00C32.30 4.98 32.63 3.42 32.12 3.43ZM40.26 9.63C39.21 6.45 37.24 2.03 36.36 1.09C36.26 1.01 36.08 1.01 35.98 1.09C35.10 2.03 33.12 6.45 32.07 9.63C31.88 10.21 33.77 10.21 33.94 9.63C34.15 8.93 34.36 8.27 34.57 7.62L37.77 7.62C37.98 8.27 38.19 8.93 38.40 9.63C38.57 10.19 40.47 10.21 40.26 9.63ZM35.04 6.23C35.36 5.33 35.73 4.44 36.18 3.50C36.61 4.44 36.97 5.33 37.30 6.23ZM41.75 9.63C41.75 10.19 43.40 10.19 43.40 9.63L43.40 1.22C43.40 0.56 41.75 1.26 41.75 1.92Z"></path></g><!----><!----></svg>